<svg width="185.246" height="94.904" viewBox="0 0 49.013 25.11" xmlns="http://www.w3.org/2000/svg"><defs><path id="a" d="M228.012 132.22h126.823v132.22H228.012z"/></defs><g style="font-size:25.4px;line-height:1.25;font-family:'el&amp;font gohtic!';-inkscape-font-specification:'el&amp;font gohtic!';letter-spacing:0;word-spacing:0;fill:#007bf9;stroke:#000;stroke-width:.264583"><path d="M53.449 30.728q1.295 1.32 1.98 2.26.687.94.991 2.032.33 1.092.33 2.667 0 .89-.152 1.753-.127.863-.38 1.93l-.255 1.245q-.05.305-.33.635-.152.203-.229.355-.05.153-.05.407 0 .152-.026.178-.787 1.397-2.565 1.88-1.753.482-3.709.482l-2.971-.305-2.363-1.092h-.127q-.152-.076-.508-.305-.33-.254-.61-.483-.406-.33-.863-1.27-.432-.965-.736-2.057-.305-1.092-.305-1.727 0-.178.025-.254-.05 0-.101-.076-.051-.077-.051-.127 0-.458.178-1.22.101-.482.127-.787.203-1.727.66-2.87.457-1.169 1.295-2.058.839-.914 2.286-1.828l.077.025q.279 0 1.346-.28 1.371-.355 1.829-.355h.66l.914.178q.432.076 1.423.28 1.016.202 1.244.304.153.05.458.178.304.101.508.305zm-9.424.914.102.203q.076.153.254.305.203.152.508.152.355 0 .584-.33-.076-.025-.203-.127-.127-.127-.127-.178 0-.076.05-.152.051-.102.102-.178.153 0 .33.102.178.101.432.101.381 0 .559-.101.203-.127.406-.559.026.203.381.203.33 0 .839-.101.508-.102.508-.407 0 .026.05.153.077.127.102.152-.025 0-.025.025.101-.025.254-.076.177-.076.304-.127.026.076.204.229.177.152.457.305.305.152.686.152.127 0 .254-.05.152-.052.203-.153.203.533.787.889.61.355 1.423.686 0 .203.101.431.127.204.305.204.203 0 .356-.153.177-.152.177-.33 0-.28-.482-.28l-1.524-1.574q-.407-.407-2.007-.61t-2.565-.203q-.432 0-.686.102-.254.076-.254.38-.05-.101-.203-.203-.127-.101-.178-.101-.102 0-.838.38-.711.382-.965.534l.304.254h-.965zm5.41-.94zM48.8 44.85q1.6 0 2.54-.254.966-.254 1.575-.965.61-.711.99-2.108l.026-1.93q0-1.728-.076-2.77-.05-1.066-.432-2.184-.38-1.143-1.219-1.88-.025.026-.102.026-.127 0-1.219-.381-1.32-.457-1.524-.457-.178 0-.38.076-.204.076-.255.102-.305.177-.584.177-.152 0-.305-.076-.127-.101-.254-.101-1.295 0-2.413.889-1.092.889-1.752 2.21-.635 1.32-.635 2.54 0 .279.152 1.498.178 1.22.406 2.235.229.99.432.99l.33-.025q.102 0 .178.178.076.153.076.305.051.127.33.457.305.305.356.381.229 0 .33.051.102.05.178.178.102.228.356.355.254.127.533.178.305.051.381.051.66.05.965.229zm-4.445-12.09q-.355-.102-.558-.127-.204-.026-.534-.026.178.178.432.33.28.127.33.153.076 0 .203-.127.127-.153.127-.203zm-1.574.33q-.102 0-.229.203-.102.178-.102.28.381 0 .813-.178-.025-.077-.228-.178-.204-.127-.254-.127zm13.03 2.337q0-.305-.153-.839-.127-.533-.406-.94-.254-.431-.61-.431-.152 0-.457.355-.28.33-.28.432 0 .076.153.203t.254.153q.051 0 .076-.026-.177.305-.177.534.152 0 .355-.153.203-.152.381-.152l-.305.305q-.279.28-.279.406l.025.026.153.127zm-13.792-.788q-.229 0-.229.508.406 0 .686-.178-.051-.101-.229-.203-.178-.127-.228-.127zm.33 1.067q-.432 0-.508.203.025.026.152.102.127.05.153.05.101 0 .152-.126.05-.153.05-.229zm11.887.203q.025.026.152.102.127.05.153.05.076 0 .33-.101.28-.127.457-.229h-.508q-.432-.025-.584.178zm1.88.61q0-.153-.051-.381-.051-.254-.102-.407-.28 0-.762.254-.457.254-.813.534l1.245.38h-1.118q0 .153.051.382.076.203.203.203.33 0 .839-.305.508-.305.508-.66zm-14.682-.026q0 .585-.203.813l.153.026q.177 0 .406-.102.254-.127.254-.33 0-.153-.229-.28-.228-.127-.38-.127zm14.25 1.778q.584 0 .584-.304v-.127q0-.534-.203-.534-.28 0-.737.28-.457.254-.635.482.178.203.559.203h.254zm-13.792.178q-.407.026-.56.229-.126.178-.126.559.33 0 .508-.229t.178-.559zm13.436 2.769q.483 0 .635-.737.178-.762.178-1.524l-.025-.38-1.677.38.584.559q-.127 0-.33.076-.178.076-.178.153 0 .076.127.152.127.05.229.05.102 0 .356-.05.254-.076.406-.076-.076.152-.483.254-.254.05-.38.127-.102.05-.102.228 0 .127.101.204.102.076.102.127 0 .076-.102.254-.101.152-.101.254.432 0 .482-.204.026.051.077.102l.101.05zm-13.182-1.88q-.178 0-.33.178-.128.178-.28.432l.305.025q.228 0 .355-.05.127-.077.127-.255 0-.33-.177-.33zm.508 1.88v-.153q-.229 0-.33.153zm8.737 4.242q1.016 0 1.956-.534.965-.559 1.55-1.473.609-.914.609-1.956-.432 0-.711.203-.28.204-.28.61h.508q-.076.127-.304.203-.204.076-.356.153-.152.05-.152.228 0 .051.482.534-.559.025-.711.101-.127.051-.203.254 0 .026-.076.203-.051.153-.254.381-.33.356-.915.66-.559.28-1.143.433zm-9.068-3.277q-.025-.05-.076-.102-.05-.05-.101-.076-.077.026-.178.076-.076.051-.127.102.178.076.178.305zm.61.127q-.152.025-.254.127-.102.076-.102.229.381 0 .381-.254zm.381 1.778q.28 0 .28-.813h-.839q0 .153.229.483.228.33.33.33zm.711.305q.254 0 .33-.203h-.33zm2.235 1.067q.178 0 .356-.077.178-.101.178-.279h-.153q-.508 0-.558.203.025.051.076.102l.101.05zm3.43.482.609-.305h-.61z" style="font-family:'Cabin Sketch';-inkscape-font-specification:'Cabin Sketch, Normal'" transform="translate(-40.312 -29.35)" aria-label="O"/></g><g style="font-size:25.4px;line-height:1.25;font-family:'el&amp;font gohtic!';-inkscape-font-specification:'el&amp;font gohtic!';letter-spacing:0;word-spacing:0;fill:#ffc500;stroke:#000;stroke-width:.264583"><path d="M61.03 38.504q1.295 1.321 1.981 2.26.686.94.99 2.033.33 1.092.33 2.667 0 .889-.152 1.753-.127.863-.38 1.93l-.255 1.245q-.05.304-.33.635-.152.203-.228.355-.051.153-.051.407 0 .152-.026.177-.787 1.397-2.565 1.88-1.753.483-3.708.483l-2.972-.305-2.362-1.092h-.127q-.153-.077-.508-.305-.33-.254-.61-.483-.406-.33-.864-1.27-.431-.965-.736-2.057t-.305-1.727q0-.178.025-.254-.05 0-.101-.077-.051-.076-.051-.127 0-.457.178-1.219.101-.482.127-.787.203-1.727.66-2.87.457-1.169 1.296-2.058.838-.914 2.286-1.829l.076.026q.28 0 1.346-.28 1.372-.355 1.829-.355h.66l.915.178q.431.076 1.422.279 1.016.203 1.245.305.152.05.457.178.305.101.508.304zm-9.424.915.102.203q.076.152.254.305.203.152.508.152.356 0 .584-.33-.076-.025-.203-.127-.127-.127-.127-.178 0-.076.05-.152.052-.102.102-.178.153 0 .33.102.178.101.432.101.381 0 .56-.101.202-.127.406-.56.025.204.38.204.33 0 .839-.102.508-.101.508-.406 0 .025.05.152.077.127.102.153-.025 0-.025.025.101-.025.254-.076.178-.076.305-.127.025.076.203.229.178.152.457.304.305.153.686.153.127 0 .254-.051.152-.05.203-.152.203.533.787.889.61.355 1.423.685 0 .204.101.432.127.203.305.203.203 0 .356-.152.178-.152.178-.33 0-.28-.483-.28l-1.524-1.574q-.406-.407-2.007-.61-1.6-.203-2.565-.203-.432 0-.686.101-.254.077-.254.381-.05-.101-.203-.203-.127-.101-.178-.101-.101 0-.838.38-.711.382-.965.534l.305.254h-.966zm5.41-.94zm-.634 14.148q1.6 0 2.54-.254.965-.254 1.574-.965.61-.712.991-2.109l.025-1.93q0-1.727-.076-2.769-.05-1.066-.432-2.184-.38-1.143-1.219-1.88-.025.026-.101.026-.127 0-1.22-.381-1.32-.457-1.524-.457-.177 0-.38.076-.204.076-.255.101-.304.178-.584.178-.152 0-.305-.076-.127-.102-.254-.102-1.295 0-2.413.89-1.092.888-1.752 2.21-.635 1.32-.635 2.54 0 .279.152 1.498.178 1.219.407 2.235.228.99.431.99l.33-.025q.102 0 .178.178.077.152.077.305.05.127.33.457.305.305.355.38.229 0 .33.052.102.05.178.178.102.228.356.355.254.127.533.178.305.05.381.05.66.052.966.23zm-4.445-12.09q-.356-.102-.56-.128-.202-.025-.533-.025.178.178.432.33.28.127.33.153.077 0 .204-.127.127-.153.127-.204zm-1.575.33q-.102 0-.229.203-.101.178-.101.28.38 0 .812-.179-.025-.076-.228-.177-.203-.127-.254-.127zm13.03 2.336q0-.304-.152-.838-.127-.533-.407-.94-.254-.431-.61-.431-.152 0-.457.355-.279.33-.279.432 0 .076.152.203.153.127.254.153.051 0 .077-.026-.178.305-.178.534.152 0 .355-.153.204-.152.381-.152l-.304.305q-.28.279-.28.406l.026.025.152.127zM49.6 42.416q-.229 0-.229.508.407 0 .686-.178-.05-.101-.229-.203-.177-.127-.228-.127zm.33 1.067q-.432 0-.508.203.025.025.152.102.127.05.153.05.101 0 .152-.127.051-.152.051-.228zm11.887.203q.026.025.153.102.127.05.152.05.076 0 .33-.101.28-.127.457-.229h-.508q-.431-.025-.584.178zm1.88.61q0-.153-.051-.381-.05-.254-.102-.407-.279 0-.762.254-.457.254-.812.534l1.244.38h-1.117q0 .153.05.382.077.203.204.203.33 0 .838-.305t.508-.66zm-14.681-.026q0 .584-.204.813l.153.025q.178 0 .406-.101.254-.127.254-.33 0-.153-.228-.28-.229-.127-.381-.127zm14.249 1.778q.584 0 .584-.305v-.127q0-.533-.203-.533-.28 0-.737.28-.457.253-.635.482.178.203.56.203h.253zm-13.792.178q-.407.025-.559.229-.127.177-.127.558.33 0 .508-.228.178-.229.178-.56zm13.436 2.769q.483 0 .635-.737.178-.762.178-1.524l-.025-.381-1.677.38.585.56q-.127 0-.33.076-.178.076-.178.152 0 .077.127.153.127.05.228.05.102 0 .356-.05.254-.076.406-.076-.076.152-.482.254-.254.05-.381.127-.102.05-.102.228 0 .127.102.203.101.077.101.127 0 .077-.101.254-.102.153-.102.254.432 0 .483-.203.025.05.076.102l.101.05zm-13.182-1.88q-.178 0-.33.178-.127.178-.28.432l.305.025q.229 0 .356-.05.127-.077.127-.255 0-.33-.178-.33zm.508 1.88v-.153q-.229 0-.33.153zm8.737 4.241q1.016 0 1.956-.533.965-.559 1.55-1.473.61-.915.61-1.956-.433 0-.712.203-.28.203-.28.61h.509q-.077.127-.305.203-.203.076-.356.152-.152.051-.152.229 0 .05.482.533-.558.026-.71.102-.128.05-.204.254 0 .025-.076.203-.051.153-.254.381-.33.356-.915.66-.558.28-1.143.432zm-9.067-3.276q-.026-.051-.077-.102-.05-.05-.101-.076-.076.025-.178.076-.076.05-.127.102.178.076.178.305zm.61.127q-.153.025-.255.127-.101.076-.101.228.38 0 .38-.254zm.38 1.778q.28 0 .28-.813h-.839q0 .152.229.483.229.33.33.33zm.711.305q.254 0 .33-.204h-.33zm2.236 1.066q.177 0 .355-.076.178-.101.178-.28h-.152q-.508 0-.56.204.026.05.077.102l.102.05zm3.429.483.61-.305h-.61z" style="font-family:'Cabin Sketch';-inkscape-font-specification:'Cabin Sketch, Normal'" transform="translate(-40.312 -29.35)" aria-label="O"/></g><g style="font-size:25.4px;line-height:1.25;font-family:'el&amp;font gohtic!';-inkscape-font-specification:'el&amp;font gohtic!';letter-spacing:0;word-spacing:0;fill:#bc0000;stroke:#000;stroke-width:.264583"><path d="M85.89 30.728q1.296 1.32 1.981 2.26.686.94.99 2.032.331 1.092.331 2.667 0 .89-.152 1.753-.127.863-.381 1.93l-.254 1.245q-.051.305-.33.635-.153.203-.23.355-.05.153-.05.407 0 .152-.025.178-.788 1.397-2.566 1.88-1.752.482-3.708.482l-2.972-.305-2.362-1.092h-.127q-.152-.076-.508-.305-.33-.254-.61-.483-.406-.33-.863-1.27-.432-.965-.737-2.057t-.305-1.727q0-.178.026-.254-.051 0-.102-.076-.05-.077-.05-.127 0-.458.177-1.22.102-.482.127-.787.203-1.727.66-2.87.458-1.169 1.296-2.058.838-.914 2.286-1.828l.076.025q.28 0 1.346-.28 1.372-.355 1.83-.355h.66l.914.178q.432.076 1.422.28 1.016.202 1.245.304.152.05.457.178.305.101.508.305zm-9.423.914.101.203q.077.153.254.305.204.152.508.152.356 0 .585-.33-.077-.025-.204-.127-.127-.127-.127-.178 0-.076.051-.152.05-.102.102-.178.152 0 .33.102.178.101.432.101.38 0 .559-.101.203-.127.406-.559.025.203.38.203.331 0 .84-.101.507-.102.507-.407 0 .026.05.153.077.127.103.152-.026 0-.026.025.102-.025.254-.076.178-.076.305-.127.025.076.203.229.178.152.457.305.305.152.686.152.127 0 .254-.05.153-.052.203-.153.204.533.788.889.61.355 1.422.686 0 .203.102.431.127.204.305.204.203 0 .355-.153.178-.152.178-.33 0-.28-.483-.28l-1.524-1.574q-.406-.407-2.006-.61-1.6-.203-2.566-.203-.431 0-.685.102-.254.076-.254.38-.051-.101-.204-.203-.127-.101-.177-.101-.102 0-.839.38-.71.382-.965.534l.305.254h-.965zm5.41-.94zm-.635 14.148q1.6 0 2.54-.254.965-.254 1.575-.965t.99-2.108l.026-1.93q0-1.728-.076-2.77-.051-1.066-.432-2.184-.381-1.143-1.22-1.88-.025.026-.101.026-.127 0-1.22-.381-1.32-.457-1.523-.457-.178 0-.381.076t-.254.102q-.305.177-.584.177-.153 0-.305-.076-.127-.101-.254-.101-1.296 0-2.413.889-1.092.889-1.753 2.21-.635 1.32-.635 2.54 0 .279.153 1.498.177 1.22.406 2.235.229.99.432.99l.33-.025q.102 0 .178.178.076.153.076.305.05.127.33.457.305.305.356.381.228 0 .33.051.102.05.178.178.101.228.355.355.254.127.534.178.305.051.38.051.661.05.966.229zm-4.445-12.09q-.356-.102-.559-.127-.203-.026-.533-.026.178.178.432.33.279.127.33.153.076 0 .203-.127.127-.153.127-.203zm-1.575.33q-.101 0-.228.203-.102.178-.102.28.38 0 .813-.178-.026-.077-.229-.178-.203-.127-.254-.127zm13.03 2.337q0-.305-.152-.839-.127-.533-.406-.94-.254-.431-.61-.431-.152 0-.457.355-.28.33-.28.432 0 .076.153.203.152.127.254.153.05 0 .076-.026-.178.305-.178.534.153 0 .356-.153.203-.152.38-.152l-.304.305q-.28.28-.28.406l.026.026.152.127zm-13.792-.788q-.228 0-.228.508.406 0 .685-.178-.05-.101-.228-.203-.178-.127-.229-.127zm.33 1.067q-.431 0-.508.203.026.026.153.102.127.05.152.05.102 0 .153-.126.05-.153.05-.229zm11.888.203q.025.026.152.102.127.05.152.05.077 0 .33-.101.28-.127.458-.229h-.508q-.432-.025-.584.178zm1.88.61q0-.153-.052-.381-.05-.254-.101-.407-.28 0-.762.254-.457.254-.813.534l1.245.38h-1.118q0 .153.05.382.077.203.204.203.33 0 .838-.305t.508-.66zm-14.682-.026q0 .585-.203.813l.152.026q.178 0 .407-.102.254-.127.254-.33 0-.153-.23-.28-.228-.127-.38-.127zm14.25 1.778q.584 0 .584-.304v-.127q0-.534-.204-.534-.28 0-.736.28-.457.254-.635.482.178.203.559.203h.254zm-13.793.178q-.406.026-.559.229-.127.178-.127.559.33 0 .508-.229t.178-.559zm13.437 2.769q.482 0 .635-.737.178-.762.178-1.524l-.026-.38-1.676.38.584.559q-.127 0-.33.076-.178.076-.178.153 0 .076.127.152.127.05.229.05.101 0 .355-.05.254-.076.407-.076-.077.152-.483.254-.254.05-.381.127-.102.05-.102.228 0 .127.102.204.102.076.102.127 0 .076-.102.254-.102.152-.102.254.432 0 .483-.204.025.051.076.102l.102.05zm-13.183-1.88q-.178 0-.33.178-.127.178-.28.432l.305.025q.229 0 .356-.05.127-.077.127-.255 0-.33-.178-.33zm.508 1.88v-.153q-.228 0-.33.153zm8.738 4.242q1.016 0 1.956-.534.965-.559 1.549-1.473.61-.914.61-1.956-.432 0-.712.203-.28.204-.28.61h.509q-.076.127-.305.203-.203.076-.355.153-.153.05-.153.228 0 .051.483.534-.56.025-.711.101-.127.051-.204.254 0 .026-.076.203-.05.153-.254.381-.33.356-.914.66-.56.28-1.143.433zm-9.068-3.277q-.025-.05-.076-.102-.051-.05-.102-.076-.076.026-.178.076-.076.051-.127.102.178.076.178.305zm.61.127q-.153.025-.254.127-.102.076-.102.229.38 0 .38-.254zm.38 1.778q.28 0 .28-.813h-.838q0 .153.228.483.229.33.33.33zm.712.305q.254 0 .33-.203h-.33zm2.235 1.067q.178 0 .356-.077.177-.101.177-.279h-.152q-.508 0-.559.203.026.051.076.102l.102.05zm3.429.482.61-.305h-.61z" style="font-family:'Cabin Sketch';-inkscape-font-specification:'Cabin Sketch, Normal'" transform="translate(-40.312 -29.35)" aria-label="O"/></g><g style="font-size:25.4px;line-height:1.25;font-family:'el&amp;font gohtic!';-inkscape-font-specification:'el&amp;font gohtic!';letter-spacing:0;word-spacing:0;stroke-width:.264583"><path d="M69.67 30.728q1.295 1.32 1.98 2.26.686.94.991 2.032.33 1.092.33 2.667 0 .89-.152 1.753-.127.863-.381 1.93l-.254 1.245q-.05.305-.33.635-.153.203-.229.355-.05.153-.05.407 0 .152-.026.178-.787 1.397-2.565 1.88-1.753.482-3.709.482l-2.972-.305-2.362-1.092h-.127q-.152-.076-.508-.305-.33-.254-.61-.483-.406-.33-.863-1.27-.432-.965-.737-2.057-.304-1.092-.304-1.727 0-.178.025-.254-.05 0-.102-.076-.05-.077-.05-.127 0-.458.177-1.22.102-.482.127-.787.204-1.727.66-2.87.458-1.169 1.296-2.058.838-.914 2.286-1.828l.076.025q.28 0 1.347-.28 1.371-.355 1.828-.355h.66l.915.178q.432.076 1.423.28 1.016.202 1.244.304.153.05.457.178.305.101.508.305zm-9.424.914.102.203q.076.153.254.305.203.152.508.152.355 0 .584-.33-.076-.025-.203-.127-.127-.127-.127-.178 0-.076.05-.152.051-.102.102-.178.152 0 .33.102.178.101.432.101.381 0 .559-.101.203-.127.406-.559.026.203.381.203.33 0 .838-.101.508-.102.508-.407 0 .026.051.153.076.127.102.152-.026 0-.026.025.102-.025.254-.076.178-.076.305-.127.026.076.203.229.178.152.458.305.304.152.685.152.127 0 .254-.05.153-.052.204-.153.203.533.787.889.61.355 1.422.686 0 .203.102.431.127.204.305.204.203 0 .355-.153.178-.152.178-.33 0-.28-.482-.28l-1.524-1.574q-.407-.407-2.007-.61t-2.565-.203q-.432 0-.686.102-.254.076-.254.38-.051-.101-.203-.203-.127-.101-.178-.101-.102 0-.838.38-.712.382-.966.534l.305.254h-.965zm5.41-.94zm-.635 14.148q1.6 0 2.54-.254.965-.254 1.575-.965t.99-2.108l.026-1.93q0-1.728-.076-2.77-.051-1.066-.432-2.184-.381-1.143-1.22-1.88-.025.026-.1.026-.128 0-1.22-.381-1.32-.457-1.524-.457-.178 0-.381.076t-.254.102q-.305.177-.584.177-.153 0-.305-.076-.127-.101-.254-.101-1.295 0-2.413.889-1.092.889-1.753 2.21-.635 1.32-.635 2.54 0 .279.153 1.498.178 1.22.406 2.235.229.99.432.99l.33-.025q.102 0 .178.178.076.153.076.305.051.127.33.457.305.305.356.381.229 0 .33.051.102.05.178.178.102.228.356.355.254.127.533.178.305.051.381.051.66.05.965.229zm-4.445-12.09q-.355-.102-.559-.127-.203-.026-.533-.026.178.178.432.33.28.127.33.153.076 0 .203-.127.127-.153.127-.203zm-1.575.33q-.101 0-.228.203-.102.178-.102.28.381 0 .813-.178-.025-.077-.229-.178-.203-.127-.254-.127zm13.03 2.337q0-.305-.152-.839-.127-.533-.406-.94-.254-.431-.61-.431-.152 0-.457.355-.28.33-.28.432 0 .076.153.203.152.127.254.153.05 0 .076-.026-.178.305-.178.534.153 0 .356-.153.203-.152.381-.152l-.305.305q-.28.28-.28.406l.026.026.153.127zm-13.792-.788q-.228 0-.228.508.406 0 .686-.178-.051-.101-.229-.203-.178-.127-.229-.127zm.33 1.067q-.431 0-.507.203.025.026.152.102.127.05.152.05.102 0 .153-.126.05-.153.05-.229zm11.888.203q.025.026.152.102.127.05.153.05.076 0 .33-.101.28-.127.457-.229h-.508q-.432-.025-.584.178zm1.88.61q0-.153-.051-.381-.051-.254-.102-.407-.28 0-.762.254-.457.254-.813.534l1.245.38h-1.118q0 .153.051.382.076.203.203.203.33 0 .838-.305t.508-.66zm-14.682-.026q0 .585-.203.813l.152.026q.178 0 .407-.102.254-.127.254-.33 0-.153-.229-.28-.228-.127-.38-.127zm14.25 1.778q.584 0 .584-.304v-.127q0-.534-.203-.534-.28 0-.737.28-.457.254-.635.482.178.203.559.203h.254zm-13.793.178q-.406.026-.558.229-.127.178-.127.559.33 0 .508-.229.177-.229.177-.559zm13.437 2.769q.483 0 .635-.737.178-.762.178-1.524l-.026-.38-1.676.38.584.559q-.127 0-.33.076-.178.076-.178.153 0 .076.127.152.127.05.229.05.101 0 .355-.05.254-.076.407-.076-.076.152-.483.254-.254.05-.38.127-.102.05-.102.228 0 .127.101.204.102.076.102.127 0 .076-.102.254-.101.152-.101.254.431 0 .482-.204.026.051.076.102l.102.05zm-13.183-1.88q-.177 0-.33.178-.127.178-.28.432l.306.025q.228 0 .355-.05.127-.077.127-.255 0-.33-.178-.33zm.508 1.88v-.153q-.228 0-.33.153zm8.738 4.242q1.016 0 1.956-.534.965-.559 1.55-1.473.609-.914.609-1.956-.432 0-.711.203-.28.204-.28.61h.508q-.076.127-.305.203-.203.076-.355.153-.153.05-.153.228 0 .051.483.534-.559.025-.711.101-.127.051-.203.254 0 .026-.077.203-.05.153-.254.381-.33.356-.914.66-.559.28-1.143.433zm-9.068-3.277q-.025-.05-.076-.102-.05-.05-.102-.076-.076.026-.177.076-.077.051-.127.102.177.076.177.305zm.61.127q-.153.025-.254.127-.102.076-.102.229.381 0 .381-.254zm.38 1.778q.28 0 .28-.813h-.838q0 .153.229.483.228.33.33.33zm.712.305q.254 0 .33-.203h-.33zm2.235 1.067q.178 0 .356-.077.178-.101.178-.279h-.153q-.508 0-.559.203.026.051.077.102l.101.05zm3.43.482.609-.305h-.61z" style="font-family:'Cabin Sketch';-inkscape-font-specification:'Cabin Sketch, Normal'" transform="translate(-40.312 -29.35)" aria-label="O"/></g><g style="font-size:25.4px;line-height:1.25;font-family:'el&amp;font gohtic!';-inkscape-font-specification:'el&amp;font gohtic!';letter-spacing:0;word-spacing:0;fill:#1d9100;stroke:#000;stroke-width:.264583"><path d="M77.78 38.504q1.295 1.321 1.981 2.26.686.94.99 2.033.33 1.092.33 2.667 0 .889-.152 1.753-.127.863-.38 1.93l-.255 1.245q-.05.304-.33.635-.152.203-.228.355-.051.153-.051.407 0 .152-.026.177-.787 1.397-2.565 1.88-1.753.483-3.708.483l-2.972-.305-2.362-1.092h-.127q-.153-.077-.508-.305-.33-.254-.61-.483-.406-.33-.864-1.27-.431-.965-.736-2.057t-.305-1.727q0-.178.025-.254-.05 0-.101-.077-.051-.076-.051-.127 0-.457.178-1.219.101-.482.127-.787.203-1.727.66-2.87.457-1.169 1.296-2.058.838-.914 2.286-1.829l.076.026q.28 0 1.346-.28 1.372-.355 1.829-.355h.66l.915.178q.431.076 1.422.279 1.016.203 1.245.305.152.05.457.178.305.101.508.304zm-9.424.915.102.203q.076.152.254.305.203.152.508.152.356 0 .584-.33-.076-.025-.203-.127-.127-.127-.127-.178 0-.076.05-.152.052-.102.102-.178.153 0 .33.102.178.101.432.101.381 0 .56-.101.202-.127.406-.56.025.204.38.204.33 0 .839-.102.508-.101.508-.406 0 .025.05.152.077.127.102.153-.025 0-.025.025.101-.025.254-.076.178-.076.305-.127.025.076.203.229.178.152.457.304.305.153.686.153.127 0 .254-.051.152-.05.203-.152.203.533.787.889.61.355 1.423.685 0 .204.101.432.127.203.305.203.203 0 .356-.152.178-.152.178-.33 0-.28-.483-.28l-1.524-1.574q-.406-.407-2.007-.61-1.6-.203-2.565-.203-.432 0-.686.101-.254.077-.254.381-.05-.101-.203-.203-.127-.101-.178-.101-.101 0-.838.38-.711.382-.965.534l.305.254h-.966zm5.41-.94zm-.634 14.148q1.6 0 2.54-.254.965-.254 1.574-.965.61-.712.991-2.109l.025-1.93q0-1.727-.076-2.769-.05-1.066-.432-2.184-.38-1.143-1.219-1.88-.025.026-.101.026-.127 0-1.22-.381-1.32-.457-1.524-.457-.177 0-.38.076-.204.076-.255.101-.304.178-.584.178-.152 0-.305-.076-.127-.102-.254-.102-1.295 0-2.413.89-1.092.888-1.752 2.21-.635 1.32-.635 2.54 0 .279.152 1.498.178 1.219.407 2.235.228.99.431.99l.33-.025q.102 0 .178.178.077.152.077.305.05.127.33.457.305.305.355.38.229 0 .33.052.102.05.178.178.102.228.356.355.254.127.533.178.305.05.381.05.66.052.966.23zm-4.445-12.09q-.356-.102-.56-.128-.202-.025-.533-.025.178.178.432.33.28.127.33.153.077 0 .204-.127.127-.153.127-.204zm-1.575.33q-.102 0-.229.203-.101.178-.101.28.38 0 .812-.179-.025-.076-.228-.177-.203-.127-.254-.127zm13.03 2.336q0-.304-.152-.838-.127-.533-.407-.94-.254-.431-.61-.431-.152 0-.457.355-.279.33-.279.432 0 .076.152.203.153.127.254.153.051 0 .077-.026-.178.305-.178.534.152 0 .355-.153.204-.152.381-.152l-.304.305q-.28.279-.28.406l.026.025.152.127zm-13.792-.787q-.229 0-.229.508.407 0 .686-.178-.05-.101-.229-.203-.177-.127-.228-.127zm.33 1.067q-.432 0-.508.203.025.025.152.102.127.05.153.05.101 0 .152-.127.051-.152.051-.228zm11.887.203q.026.025.153.102.127.05.152.05.076 0 .33-.101.28-.127.457-.229h-.508q-.431-.025-.584.178zm1.88.61q0-.153-.051-.381-.05-.254-.102-.407-.279 0-.762.254-.457.254-.812.534l1.244.38h-1.117q0 .153.05.382.077.203.204.203.33 0 .838-.305t.508-.66zm-14.681-.026q0 .584-.204.813l.153.025q.178 0 .406-.101.254-.127.254-.33 0-.153-.228-.28-.229-.127-.381-.127zm14.249 1.778q.584 0 .584-.305v-.127q0-.533-.203-.533-.28 0-.737.28-.457.253-.635.482.178.203.56.203h.253zm-13.792.178q-.407.025-.559.229-.127.177-.127.558.33 0 .508-.228.178-.229.178-.56zm13.436 2.769q.483 0 .635-.737.178-.762.178-1.524l-.025-.381-1.677.38.585.56q-.127 0-.33.076-.178.076-.178.152 0 .077.127.153.127.05.228.05.102 0 .356-.05.254-.076.406-.076-.076.152-.482.254-.254.05-.381.127-.102.05-.102.228 0 .127.102.203.101.077.101.127 0 .077-.101.254-.102.153-.102.254.432 0 .483-.203.025.05.076.102l.101.05zm-13.182-1.88q-.178 0-.33.178-.127.178-.28.432l.305.025q.229 0 .356-.05.127-.077.127-.255 0-.33-.178-.33zm.508 1.88v-.153q-.229 0-.33.153zm8.737 4.241q1.016 0 1.956-.533.965-.559 1.55-1.473.61-.915.61-1.956-.433 0-.712.203-.28.203-.28.61h.509q-.077.127-.305.203-.203.076-.356.152-.152.051-.152.229 0 .05.482.533-.558.026-.71.102-.128.05-.204.254 0 .025-.076.203-.051.153-.254.381-.33.356-.915.66-.558.28-1.143.432zm-9.067-3.276q-.026-.051-.077-.102-.05-.05-.101-.076-.076.025-.178.076-.076.05-.127.102.178.076.178.305zm.61.127q-.153.025-.255.127-.101.076-.101.228.38 0 .38-.254zm.38 1.778q.28 0 .28-.813h-.839q0 .152.229.483.229.33.33.33zm.711.305q.254 0 .33-.204h-.33zm2.236 1.066q.177 0 .355-.076.178-.101.178-.28h-.152q-.508 0-.56.204.026.05.077.102l.102.05zm3.429.483.61-.305h-.61z" style="font-family:'Cabin Sketch';-inkscape-font-specification:'Cabin Sketch, Normal'" transform="translate(-40.312 -29.35)" aria-label="O"/></g></svg>